<svg width="137" height="84" viewBox="0 0 137 84" fill="none" xmlns="http://www.w3.org/2000/svg">
<path d="M66.2955 4.45455V19H64.5909L56.6648 7.57955H56.5227V19H54.7614V4.45455H56.4659L64.4205 15.9034H64.5625V4.45455H66.2955ZM82.0927 11.7273C82.0927 13.2614 81.8157 14.5871 81.2617 15.7045C80.7077 16.822 79.9478 17.6837 78.9819 18.2898C78.016 18.8958 76.9128 19.1989 75.6722 19.1989C74.4317 19.1989 73.3285 18.8958 72.3626 18.2898C71.3967 17.6837 70.6367 16.822 70.0827 15.7045C69.5288 14.5871 69.2518 13.2614 69.2518 11.7273C69.2518 10.1932 69.5288 8.86742 70.0827 7.75C70.6367 6.63258 71.3967 5.77083 72.3626 5.16477C73.3285 4.55871 74.4317 4.25568 75.6722 4.25568C76.9128 4.25568 78.016 4.55871 78.9819 5.16477C79.9478 5.77083 80.7077 6.63258 81.2617 7.75C81.8157 8.86742 82.0927 10.1932 82.0927 11.7273ZM80.3881 11.7273C80.3881 10.4678 80.1774 9.40483 79.756 8.53835C79.3394 7.67188 78.7736 7.0161 78.0586 6.57102C77.3484 6.12595 76.5529 5.90341 75.6722 5.90341C74.7915 5.90341 73.9937 6.12595 73.2788 6.57102C72.5685 7.0161 72.0027 7.67188 71.5813 8.53835C71.1647 9.40483 70.9563 10.4678 70.9563 11.7273C70.9563 12.9867 71.1647 14.0497 71.5813 14.9162C72.0027 15.7827 72.5685 16.4384 73.2788 16.8835C73.9937 17.3286 74.7915 17.5511 75.6722 17.5511C76.5529 17.5511 77.3484 17.3286 78.0586 16.8835C78.7736 16.4384 79.3394 15.7827 79.756 14.9162C80.1774 14.0497 80.3881 12.9867 80.3881 11.7273Z" fill="black"/>
<path d="M68 84C84.5685 84 98 70.5685 98 54C98 37.4315 84.5685 24 68 24C51.4315 24 38 37.4315 38 54C38 70.5685 51.4315 84 68 84Z" fill="#B0D4EE"/>
<path d="M79.999 66.0059C79.999 66.0059 75.499 60.0059 67.999 60.0059C60.499 60.0059 55.999 66.0059 55.999 66.0059" fill="#B0D4EE"/>
<path d="M79.999 66.0059C79.999 66.0059 75.499 60.0059 67.999 60.0059C60.499 60.0059 55.999 66.0059 55.999 66.0059" stroke="black" stroke-width="4" stroke-linecap="round" stroke-linejoin="round"/>
<path d="M58.9985 45.0059H59.0385" stroke="black" stroke-width="4" stroke-linecap="round" stroke-linejoin="round"/>
<path d="M77.0015 45.0059H77.0415" stroke="black" stroke-width="4" stroke-linecap="round" stroke-linejoin="round"/>
<path d="M79.999 66.0059C79.999 66.0059 75.499 60.0059 67.999 60.0059C60.499 60.0059 55.999 66.0059 55.999 66.0059" fill="#B0D4EE"/>
<path d="M79.999 66.0059C79.999 66.0059 75.499 60.0059 67.999 60.0059C60.499 60.0059 55.999 66.0059 55.999 66.0059" stroke="black" stroke-width="4" stroke-linecap="round" stroke-linejoin="round"/>
<path d="M58.9985 45.0059H59.0385" stroke="black" stroke-width="4" stroke-linecap="round" stroke-linejoin="round"/>
<path d="M77.0015 45.0059H77.0415" stroke="black" stroke-width="4" stroke-linecap="round" stroke-linejoin="round"/>
<path d="M79.999 66.0059C79.999 66.0059 75.499 60.0059 67.999 60.0059C60.499 60.0059 55.999 66.0059 55.999 66.0059" fill="#B0D4EE"/>
<path d="M79.999 66.0059C79.999 66.0059 75.499 60.0059 67.999 60.0059C60.499 60.0059 55.999 66.0059 55.999 66.0059" stroke="black" stroke-width="4" stroke-linecap="round" stroke-linejoin="round"/>
<path d="M58.9985 45.0059H59.0385" stroke="black" stroke-width="4" stroke-linecap="round" stroke-linejoin="round"/>
<path d="M77.0015 45.0059H77.0415" stroke="black" stroke-width="4" stroke-linecap="round" stroke-linejoin="round"/>
</svg>
