<svg width="80" height="84" viewBox="0 0 80 84" fill="none" xmlns="http://www.w3.org/2000/svg">
<rect width="80" height="84" fill="white"/>
<path d="M21.5114 4.45455H23.5284L27.5625 11.2443H27.733L31.767 4.45455H33.7841L28.5284 13.0057V19H26.767V13.0057L21.5114 4.45455ZM36.0621 19V4.45455H44.8406V6.01705H37.8235V10.9318H44.386V12.4943H37.8235V17.4375H44.9542V19H36.0621ZM55.9698 8.09091C55.8846 7.37121 55.5389 6.8125 54.9329 6.41477C54.3268 6.01705 53.5835 5.81818 52.7028 5.81818C52.0588 5.81818 51.4954 5.92235 51.0124 6.13068C50.5342 6.33901 50.1602 6.62547 49.8903 6.99006C49.6251 7.35464 49.4925 7.76894 49.4925 8.23295C49.4925 8.62121 49.5849 8.95502 49.7695 9.23438C49.9589 9.509 50.2004 9.73864 50.494 9.9233C50.7875 10.1032 51.0953 10.2524 51.4173 10.3707C51.7392 10.4844 52.0352 10.5767 52.305 10.6477L53.7823 11.0455C54.1611 11.1449 54.5825 11.2822 55.0465 11.4574C55.5153 11.6326 55.9627 11.8717 56.3888 12.1747C56.8197 12.473 57.1748 12.8565 57.4542 13.3253C57.7335 13.794 57.8732 14.3693 57.8732 15.0511C57.8732 15.8371 57.6673 16.5473 57.2553 17.1818C56.8481 17.8163 56.2515 18.3205 55.4656 18.6946C54.6843 19.0687 53.735 19.2557 52.6175 19.2557C51.5759 19.2557 50.6739 19.0876 49.9116 18.7514C49.154 18.4152 48.5574 17.9465 48.1218 17.3452C47.6909 16.7438 47.4471 16.0455 47.3903 15.25H49.2085C49.2558 15.7992 49.4405 16.2538 49.7624 16.6136C50.0891 16.9687 50.5011 17.2339 50.9982 17.4091C51.5001 17.5795 52.0399 17.6648 52.6175 17.6648C53.2899 17.6648 53.8936 17.5559 54.4286 17.3381C54.9637 17.1155 55.3874 16.8078 55.6999 16.4148C56.0124 16.017 56.1687 15.553 56.1687 15.0227C56.1687 14.5398 56.0337 14.1468 55.7638 13.8438C55.494 13.5407 55.1388 13.2945 54.6985 13.1051C54.2582 12.9157 53.7823 12.75 53.271 12.608L51.4812 12.0966C50.3448 11.7699 49.4452 11.3035 48.7823 10.6974C48.1194 10.0914 47.788 9.2983 47.788 8.31818C47.788 7.50379 48.0082 6.79356 48.4485 6.1875C48.8936 5.5767 49.4902 5.10322 50.2383 4.76705C50.9911 4.42614 51.8316 4.25568 52.7596 4.25568C53.6971 4.25568 54.5304 4.42377 55.2596 4.75994C55.9888 5.09138 56.5664 5.54593 56.9925 6.12358C57.4234 6.70123 57.6507 7.35701 57.6744 8.09091H55.9698Z" fill="black"/>
<path d="M40 84C56.5685 84 70 70.5685 70 54C70 37.4315 56.5685 24 40 24C23.4315 24 10 37.4315 10 54C10 70.5685 23.4315 84 40 84Z" fill="#D9D9D9"/>
<path d="M27.999 60.0059C27.999 60.0059 32.499 66.0059 39.999 66.0059C47.499 66.0059 51.999 60.0059 51.999 60.0059" fill="#D9D9D9"/>
<path d="M27.999 60.0059C27.999 60.0059 32.499 66.0059 39.999 66.0059C47.499 66.0059 51.999 60.0059 51.999 60.0059" stroke="black" stroke-width="4" stroke-linecap="round" stroke-linejoin="round"/>
<path d="M30.9985 45.0059H31.039" stroke="black" stroke-width="4" stroke-linecap="round" stroke-linejoin="round"/>
<path d="M49.0015 45.0059H49.042" stroke="black" stroke-width="4" stroke-linecap="round" stroke-linejoin="round"/>
</svg>
