<svg width="1277" height="555" viewBox="0 0 1277 555" fill="none" xmlns="http://www.w3.org/2000/svg">
<rect x="-3" width="1280" height="555" fill="#FCEFEE"/>
<circle cx="887.765" cy="293.235" r="179.235" fill="url(#paint0_linear_578_2393)"/>
<path d="M816.361 300.294V278.534H823.529C825.812 278.534 827.518 279.11 828.649 280.262C829.801 281.414 830.377 282.95 830.377 284.87V286.566C830.377 288.486 829.801 290.033 828.649 291.206C827.518 292.358 825.812 292.934 823.529 292.934H820.201V300.294H816.361ZM823.529 282.214H820.201V289.254H823.529C824.468 289.254 825.182 289.019 825.673 288.55C826.185 288.081 826.441 287.419 826.441 286.566V284.87C826.441 284.038 826.185 283.387 825.673 282.918C825.182 282.449 824.468 282.214 823.529 282.214ZM843.096 287.43C842.093 287.43 841.133 287.59 840.216 287.91C839.32 288.209 838.456 288.699 837.624 289.382V300.294H833.944V284.07H837.432V286.566C838.52 285.542 839.49 284.817 840.344 284.39C841.197 283.963 842.114 283.75 843.096 283.75V287.43ZM858.607 300.454C857.519 300.454 856.644 300.23 855.983 299.782C855.343 299.334 854.873 298.779 854.575 298.118C853.657 298.971 852.772 299.601 851.919 300.006C851.065 300.411 850.148 300.614 849.167 300.614C847.737 300.614 846.681 300.155 845.999 299.238C845.337 298.321 845.007 297.158 845.007 295.75C845.007 294.811 845.177 293.99 845.519 293.286C845.881 292.561 846.468 291.995 847.279 291.59C848.089 291.185 849.199 290.982 850.607 290.982C851.161 290.982 851.737 291.025 852.335 291.11C852.932 291.174 853.529 291.259 854.127 291.366V289.478C854.127 288.582 853.881 287.974 853.391 287.654C852.9 287.313 852.239 287.142 851.407 287.142C850.767 287.142 850.063 287.227 849.295 287.398C848.548 287.569 847.737 287.835 846.863 288.198L845.807 285.062C847.961 284.187 849.913 283.75 851.663 283.75C853.241 283.75 854.457 284.017 855.311 284.55C856.185 285.083 856.793 285.787 857.135 286.662C857.476 287.537 857.647 288.475 857.647 289.478V295.718C857.647 296.038 857.732 296.347 857.903 296.646C858.095 296.923 858.457 297.062 858.991 297.062H859.343V300.454H858.607ZM848.559 295.686C848.559 296.262 848.687 296.721 848.943 297.062C849.199 297.382 849.572 297.542 850.063 297.542C850.553 297.542 851.108 297.414 851.727 297.158C852.345 296.902 853.145 296.305 854.127 295.366V293.99C853.017 293.798 851.929 293.702 850.863 293.702C850.031 293.702 849.433 293.873 849.071 294.214C848.729 294.555 848.559 295.046 848.559 295.686ZM865.353 291.238V293.126C865.353 294.491 865.599 295.515 866.089 296.198C866.58 296.881 867.369 297.222 868.457 297.222C868.991 297.222 869.588 297.158 870.249 297.03C870.932 296.881 871.668 296.657 872.457 296.358L873.513 299.462C872.553 299.846 871.647 300.134 870.793 300.326C869.94 300.518 869.097 300.614 868.265 300.614C866.132 300.614 864.5 299.931 863.369 298.566C862.239 297.201 861.673 295.387 861.673 293.126V291.238C861.673 288.955 862.239 287.142 863.369 285.798C864.5 284.433 866.132 283.75 868.265 283.75C869.076 283.75 869.897 283.846 870.729 284.038C871.561 284.23 872.436 284.507 873.353 284.87L872.297 288.038C870.761 287.441 869.481 287.142 868.457 287.142C867.369 287.142 866.58 287.483 866.089 288.166C865.599 288.827 865.353 289.851 865.353 291.238ZM886.641 299.75C886.086 300.006 885.446 300.209 884.721 300.358C883.996 300.529 883.26 300.614 882.513 300.614C881.276 300.614 880.284 300.358 879.537 299.846C878.79 299.334 878.246 298.619 877.905 297.702C877.585 296.785 877.425 295.739 877.425 294.566V287.27H874.801V284.07H877.425V279.846H881.105V284.07H886.161V287.27H881.105V294.566C881.105 295.547 881.286 296.23 881.649 296.614C882.033 296.977 882.577 297.158 883.281 297.158C883.622 297.158 883.985 297.126 884.369 297.062C884.774 296.977 885.222 296.838 885.713 296.646L886.641 299.75ZM893.376 280.998H889.504V277.19H893.376V280.998ZM893.28 300.294H889.6V284.07H893.28V300.294ZM901.166 291.238V293.126C901.166 294.491 901.411 295.515 901.902 296.198C902.392 296.881 903.182 297.222 904.27 297.222C904.803 297.222 905.4 297.158 906.062 297.03C906.744 296.881 907.48 296.657 908.27 296.358L909.326 299.462C908.366 299.846 907.459 300.134 906.606 300.326C905.752 300.518 904.91 300.614 904.078 300.614C901.944 300.614 900.312 299.931 899.182 298.566C898.051 297.201 897.486 295.387 897.486 293.126V291.238C897.486 288.955 898.051 287.142 899.182 285.798C900.312 284.433 901.944 283.75 904.078 283.75C904.888 283.75 905.71 283.846 906.542 284.038C907.374 284.23 908.248 284.507 909.166 284.87L908.11 288.038C906.574 287.441 905.294 287.142 904.27 287.142C903.182 287.142 902.392 287.483 901.902 288.166C901.411 288.827 901.166 289.851 901.166 291.238ZM925.014 299.366C923.904 299.814 922.859 300.134 921.878 300.326C920.896 300.518 919.968 300.614 919.094 300.614C916.683 300.614 914.859 299.931 913.622 298.566C912.384 297.201 911.766 295.387 911.766 293.126V291.206C911.766 289.691 912.043 288.379 912.598 287.27C913.152 286.161 913.942 285.297 914.966 284.678C915.99 284.059 917.195 283.75 918.582 283.75C919.712 283.75 920.768 283.985 921.75 284.454C922.752 284.902 923.563 285.617 924.182 286.598C924.822 287.558 925.142 288.795 925.142 290.31C925.142 290.758 925.11 291.238 925.046 291.75C924.982 292.241 924.875 292.763 924.726 293.318H915.318C915.36 294.641 915.691 295.633 916.31 296.294C916.928 296.955 917.92 297.286 919.286 297.286C920.011 297.286 920.758 297.201 921.526 297.03C922.315 296.859 923.126 296.603 923.958 296.262L925.014 299.366ZM918.582 286.854C917.6 286.854 916.832 287.174 916.278 287.814C915.744 288.433 915.435 289.329 915.35 290.502H921.494C921.515 290.395 921.526 290.299 921.526 290.214C921.526 290.107 921.526 290.011 921.526 289.926C921.526 288.902 921.238 288.134 920.662 287.622C920.086 287.11 919.392 286.854 918.582 286.854Z" fill="black"/>
<circle cx="432.235" cy="308.765" r="179.235" fill="url(#paint1_linear_578_2393)"/>
<path d="M402.92 311.689V315.689C401.256 315.689 399.923 315.497 398.92 315.113C397.917 314.729 397.128 314.174 396.552 313.449C395.997 312.723 395.549 311.838 395.208 310.793L394.824 309.673C392.285 309.587 390.355 308.755 389.032 307.177C387.731 305.598 387.08 303.454 387.08 300.745V296.169C387.08 293.395 387.763 291.219 389.128 289.641C390.515 288.062 392.552 287.273 395.24 287.273C397.907 287.273 399.933 288.062 401.32 289.641C402.707 291.219 403.4 293.395 403.4 296.169V300.745C403.4 302.899 402.973 304.713 402.12 306.185C401.288 307.635 400.051 308.638 398.408 309.193C398.6 309.875 398.867 310.398 399.208 310.761C399.549 311.123 400.008 311.369 400.584 311.497C401.181 311.625 401.96 311.689 402.92 311.689ZM399.464 296.169C399.464 294.419 399.123 293.107 398.44 292.233C397.757 291.337 396.691 290.889 395.24 290.889C393.789 290.889 392.723 291.337 392.04 292.233C391.357 293.107 391.016 294.419 391.016 296.169V300.745C391.016 302.494 391.357 303.817 392.04 304.713C392.723 305.609 393.789 306.057 395.24 306.057C396.691 306.057 397.757 305.609 398.44 304.713C399.123 303.817 399.464 302.494 399.464 300.745V296.169ZM419.229 309.737C423.485 309.737 426.141 307.849 428.285 304.841C430.173 302.153 431.389 299.369 432.061 296.137H427.901C427.517 298.825 426.589 300.873 425.213 302.633C423.613 304.745 421.661 306.153 419.645 306.153C417.085 306.153 415.229 305.097 415.229 303.017C415.229 298.089 425.853 297.161 425.853 290.473C425.853 287.177 423.517 285.193 419.933 285.193C416.413 285.193 413.789 287.529 413.789 291.241C413.789 296.393 419.933 301.353 425.277 305.897C427.581 307.817 429.149 308.777 430.877 309.769L432.957 306.089C431.933 305.545 430.077 304.425 428.189 302.953C423.933 299.593 417.533 294.761 417.533 291.081C417.533 289.289 418.525 288.329 420.029 288.329C421.437 288.329 422.269 289.257 422.269 290.633C422.269 295.433 411.037 296.137 411.037 303.145C411.037 307.049 413.885 309.737 419.229 309.737ZM452.061 309.353L450.717 305.097H443.261L441.917 309.353H438.109L445.373 287.593H448.765L456.061 309.353H452.061ZM445.341 298.441L444.349 301.577H449.597L448.605 298.441L447.005 292.937L445.341 298.441Z" fill="black"/>
<path d="M669.144 322.664L666.588 325.22L661.584 320.216L656.58 325.22L654.024 322.664L659.028 317.66L654.024 312.656L656.58 310.1L661.584 315.104L666.588 310.1L669.144 312.656L664.14 317.66L669.144 322.664Z" fill="black"/>
<g filter="url(#filter0_d_578_2393)">
<path d="M178.8 82.98V95.76H181.16V85.14H185.42V82.98H178.8ZM195.84 86.28L194.72 88.56H205.44V86.28H195.84ZM198.48 90.68V92.86H204.92V90.68H198.48ZM198.46 95.1V97.34H205.18V95.1H198.46ZM197.26 87.04V101.8H199.72V87.04H197.26ZM196.3 83.2C195.38 86.1 193.8 88.98 192.04 90.78C192.56 91.16 193.48 92.02 193.86 92.46C195.7 90.38 197.5 87.06 198.62 83.82L196.3 83.2ZM191.02 83.1C190 85.96 188.26 88.8 186.42 90.62C186.84 91.22 187.52 92.58 187.74 93.18C189.94 90.9 192.04 87.24 193.34 83.84L191.02 83.1ZM189 88.62V101.78H191.42V86.22L191.4 86.2L189 88.62ZM213.22 83.94L210.48 83.84C210.46 84.38 210.4 85.18 210.32 85.92C210.02 88 209.76 90.46 209.76 92.34C209.76 93.68 209.88 94.9 210 95.68L212.46 95.5C212.36 94.58 212.34 93.94 212.38 93.38C212.46 90.76 214.54 87.2 216.9 87.2C218.56 87.2 219.6 88.92 219.6 92C219.6 96.84 216.48 98.32 212.02 99L213.54 101.32C218.84 100.34 222.3 97.66 222.3 92C222.3 87.6 220.14 84.86 217.36 84.86C215.12 84.86 213.36 86.56 212.4 88.1C212.52 86.98 212.94 84.92 213.22 83.94ZM235.46 84.04L232.4 83.8C232.46 84.28 232.44 85.1 232.34 85.84C232.2 87.02 231.74 89.22 231.24 91.1C230.48 93.9 228.96 98.08 227.78 100.1L230.56 101.04C231.66 98.66 233 94.58 233.72 91.78C234.26 89.74 234.76 87.3 235.04 85.94C235.14 85.5 235.32 84.6 235.46 84.04ZM230.36 87.04C229.54 87.04 228.88 87 227.84 86.88L227.92 89.38C228.62 89.42 229.36 89.46 230.34 89.46C232.6 89.46 235.74 89.12 238.22 88.54V86.04C235.62 86.66 232.8 87.04 230.36 87.04ZM236.64 90.1V92.44C237.9 92.28 239.14 92.22 240.52 92.22C241.72 92.22 242.94 92.36 243.96 92.48L244 90.08C242.84 89.96 241.64 89.9 240.5 89.9C239.2 89.9 237.76 89.98 236.64 90.1ZM237.72 95.12L235.34 94.9C235.18 95.68 235 96.64 235 97.58C235 99.6 236.8 100.74 240.18 100.74C241.78 100.74 243.12 100.62 244.24 100.46L244.34 97.92C242.92 98.18 241.54 98.32 240.2 98.32C238.04 98.32 237.46 97.66 237.46 96.78C237.46 96.34 237.58 95.7 237.72 95.12ZM251.18 85.72L248.1 85.68C248.24 86.3 248.26 87.16 248.26 87.7C248.26 88.92 248.28 91.28 248.48 93.12C249.04 98.48 250.94 100.44 253.16 100.44C254.76 100.44 256 99.24 257.34 95.74L255.32 93.32C254.94 94.9 254.16 97.26 253.2 97.26C251.94 97.26 251.34 95.28 251.06 92.4C250.94 90.94 250.94 89.46 250.94 88.16C250.94 87.6 251.04 86.42 251.18 85.72ZM261.18 86.16L258.64 87C260.82 89.48 261.9 94.32 262.2 97.56L264.84 96.52C264.62 93.46 263.08 88.46 261.18 86.16ZM273.18 101.84V89.06H270.82V99.68H266.56V101.84H273.18ZM295.72 83.96L293.08 83.74C293.02 84.76 292.76 85.98 292.36 87.06C291.52 89.26 289.98 91.42 287.42 93.78L289.56 95.38C290.24 94.5 290.8 93.78 291.4 93.18C292.16 92.46 293.42 91.8 294.52 91.8C295.36 91.8 296.16 92.22 296.16 93.5C296.18 94.58 296.14 96.28 296.06 97.22H298.46C298.44 95.96 298.38 93.78 298.38 92.7C298.38 90.84 297.12 89.86 295.46 89.86C294.78 89.86 293.72 90 293.18 90.24C293.74 89.44 294.32 88.3 294.74 87.32C295.3 85.88 295.56 84.7 295.72 83.96ZM288.18 85.82V88.14C289.28 88.24 290.74 88.28 291.56 88.28C294 88.28 298.02 88.1 300.84 87.7L300.86 85.38C297.96 85.9 294.34 86.04 291.7 86.04C290.68 86.04 289.2 85.96 288.18 85.82ZM304.02 91.5L303.04 89.16C302.28 89.54 301.58 89.86 300.8 90.2C299.6 90.76 298.34 91.24 296.5 92.2C294.1 93.4 291.24 95.04 291.24 97.82C291.24 100.4 293.58 101.18 296.7 101.18C298.6 101.18 301.04 101 302.38 100.82L302.46 98.24C300.7 98.6 298.46 98.82 296.76 98.82C294.82 98.82 293.86 98.52 293.86 97.42C293.86 96.32 294.84 95.46 296.66 94.52C298.54 93.56 300.34 92.84 301.64 92.34C302.32 92.08 303.4 91.68 304.02 91.5ZM314.74 83.04V86.24H317.2V83.04H314.74ZM307.42 84.78V89.08H309.8V86.88H322.08V89.08H324.56V84.78H307.42ZM309.2 88.46V90.4H322.94V88.46H309.2ZM307.26 94.8V96.88H324.84V94.8H307.26ZM309.52 91.6V93.54H322.54V91.6H309.52ZM317.18 95.22L315.02 95.66C316.56 99.22 319.12 101.12 323.7 101.86C324 101.22 324.62 100.26 325.12 99.76C320.96 99.32 318.36 97.86 317.18 95.22ZM314.68 87.32V92.86C314.68 95.54 313.8 98.28 306.88 99.86C307.4 100.36 308.1 101.28 308.36 101.8C315.64 99.84 317.1 96.4 317.1 92.88V87.32H314.68ZM326.82 84.06V86.28H333.86V84.06H326.82ZM327 89.78V91.98H333.64V89.78H327ZM326.34 96.72L326.94 99C329.02 98.38 331.74 97.6 334.26 96.84L333.94 94.74C331.18 95.5 328.28 96.28 326.34 96.72ZM336.86 88.78H342.12V90.02H336.86V88.78ZM336.86 91.86H342.12V93.08H336.86V91.86ZM336.86 85.74H342.12V86.96H336.86V85.74ZM334.64 83.78V95.06H344.46V83.78H334.64ZM339.68 94.18V99C339.68 101.02 340.08 101.7 341.94 101.7C342.28 101.7 343.1 101.7 343.46 101.7C344.92 101.7 345.48 100.94 345.68 98.2C345.08 98.06 344.12 97.68 343.66 97.32C343.62 99.32 343.54 99.64 343.2 99.64C343.02 99.64 342.5 99.64 342.36 99.64C342.04 99.64 341.98 99.58 341.98 98.98V94.18H339.68ZM336.14 94.76C335.88 97.3 335.36 99 331.56 99.96C332.04 100.42 332.64 101.34 332.88 101.94C337.32 100.6 338.18 98.18 338.48 94.76H336.14ZM329.24 84.94V97.04L331.56 96.7V84.94H329.24ZM359.06 83.88H356.16C356.2 84.14 356.28 84.82 356.34 85.62C356.42 86.68 356.42 90.52 356.42 91.76L358.92 92.6C358.9 91 358.86 86.92 358.92 85.6C358.94 85.28 359 84.22 359.06 83.88ZM347.74 86.38L347.8 88.78C350.82 88.62 354.8 88.46 358.44 88.46C361.38 88.46 363.42 88.52 364.66 88.58L364.7 86.22C363.58 86.2 360.54 86.22 358.5 86.22C356 86.22 350.72 86.38 347.74 86.38ZM358.58 92.3L356.7 91.78C357.34 94.16 356.52 94.96 355.58 94.96C354.76 94.96 354.02 94.38 354.02 93.48C354.02 92.42 354.8 91.88 355.58 91.88C356.46 91.88 357.16 92.5 357.16 93.8C357.16 97.3 354.5 98.64 351.1 99.38L353.22 101.5C358.1 100.12 359.64 96.82 359.64 94.2C359.64 91.72 358.26 89.78 355.62 89.78C353.46 89.78 351.62 91.26 351.62 93.52C351.62 95.96 353.54 97.18 355.08 97.18C357.38 97.18 358.58 95.56 358.58 92.3ZM370.4 84.78L370.48 87.38C370.94 87.3 371.56 87.26 372.1 87.22C373.18 87.14 375.94 87.04 376.96 87C375.98 87.88 373.88 89.56 372.76 90.48C371.6 91.46 369.18 93.5 367.76 94.62L369.58 96.5C371.72 94.08 373.7 92.44 376.78 92.44C379.12 92.44 380.92 93.66 380.92 95.48C380.92 97.62 379.2 98.9 375.82 98.9C374.6 98.9 373.78 98.4 373.78 97.66C373.78 97.14 374.28 96.68 375.02 96.68C376.2 96.68 376.96 97.68 377 99.12L379.34 98.82C379.28 96.62 377.76 94.78 375.02 94.78C372.9 94.78 371.42 96.26 371.42 97.88C371.42 99.9 373.52 101.16 376.3 101.16C381.14 101.16 383.54 98.66 383.54 95.5C383.54 92.6 380.96 90.48 377.56 90.48C376.94 90.48 376.34 90.52 375.66 90.7C376.94 89.7 379.04 87.94 380.12 87.18C380.56 86.84 381.04 86.56 381.5 86.26L380.22 84.46C379.98 84.54 379.52 84.62 378.68 84.68C377.54 84.78 373.28 84.88 372.2 84.88C371.64 84.88 370.96 84.84 370.4 84.78ZM387.7 84.54V86.48H404.38V84.54H387.7ZM388.44 99.28V101.24H403.74V99.28H388.44ZM391.88 87.34V89.02H400.04V87.34H391.88ZM391.88 89.9V91.58H400.04V89.9H391.88ZM386.64 92.46V94.42H405.34V92.46H386.64ZM391.18 96.1V97.98H400.84V96.1H391.18ZM390.46 83.02V93.54H392.88V83.02H390.46ZM399.18 83.04V93.54H401.62V83.04H399.18ZM394.72 94.84V100.42H397.18V94.84H394.72ZM391.7 93.02C390.64 94.64 388.54 96.18 386.46 96.94C386.96 97.38 387.64 98.22 387.98 98.78C390.26 97.76 392.42 95.88 393.7 93.76L391.7 93.02ZM400.38 93.02L398.48 93.74C399.74 95.74 401.82 97.64 403.98 98.6C404.34 98.04 405.04 97.18 405.56 96.74C403.5 96 401.44 94.56 400.38 93.02ZM406.84 83.94V86.12H413.78V83.94H406.84ZM408.96 90.14V92.22H411.36V97.2H408.96V99.26H413.36V90.14H408.96ZM408.78 85.1C408.42 88.68 407.74 92.16 406.3 94.36C406.7 94.9 407.34 96.08 407.56 96.62C409.46 93.9 410.44 89.7 410.98 85.44L408.78 85.1ZM407.98 90.14V100.72H409.94V90.14H407.98ZM413.88 84.96V86.78H419.12V84.96H413.88ZM413.8 91.98V93.92H423.86V91.98H413.8ZM419.32 95.6V97.5H423.88V95.6H419.32ZM415.74 83.02V91.56H417.68V83.02H415.74ZM415.58 86.08C415.08 87.46 414.08 88.98 413.12 89.76C413.46 90.14 413.92 90.9 414.1 91.38C415.24 90.28 416.36 88.44 416.94 86.82L415.58 86.08ZM423.18 86.08L422 86.48C422.46 88.22 423.36 90.16 424.42 91.18C424.7 90.74 425.26 90.14 425.66 89.84C424.62 89.06 423.68 87.5 423.18 86.08ZM417.64 86.96L416.7 87.68C417.14 88.12 418.04 89.2 418.4 89.72L419.46 88.38C419.18 88.1 418 87.2 417.64 86.96ZM419.44 84.96V86.78H425.3V84.96H419.44ZM421.14 83.02V91.56H423.12V83.02H421.14ZM421.14 86.08C420.62 87.52 419.58 89.02 418.52 89.76C418.86 90.14 419.28 90.84 419.46 91.28C420.66 90.26 421.84 88.44 422.42 86.78L421.14 86.08ZM423.2 91.98V92.22C423.02 93.1 422.68 94.2 422.42 94.9L424.22 95.52C424.6 94.68 425.06 93.44 425.4 92.34L423.88 91.88L423.54 91.98H423.2ZM416.7 96.12L415.14 96.64C416.3 100.7 418.38 101.52 421.58 101.52H425C425.08 100.96 425.36 100 425.62 99.52C424.82 99.54 422.32 99.56 421.72 99.56C419.34 99.54 417.56 99.06 416.7 96.12ZM415.02 94.44C414.86 96.74 414.5 98.94 412.52 100.24C413 100.6 413.6 101.34 413.86 101.82C416.34 100.14 416.9 97.44 417.12 94.44H415.02ZM418.36 92.58V99.56L420.56 100.52V92.58H418.36ZM427.5 87.18V89.64H442.82V87.18H427.5ZM441.84 87.18V87.66C441.5 95.04 441.1 98.2 440.4 98.88C440.12 99.14 439.88 99.22 439.48 99.22C438.94 99.22 437.76 99.2 436.48 99.1C436.94 99.8 437.28 100.88 437.32 101.58C438.54 101.64 439.78 101.66 440.54 101.54C441.42 101.42 442 101.2 442.58 100.44C443.48 99.38 443.88 96.34 444.28 88.34C444.32 88 444.34 87.18 444.34 87.18H441.84ZM433.64 83.06V87.18C433.64 91.04 433.08 96.58 426.86 99.96C427.46 100.38 428.36 101.32 428.74 101.9C435.54 98.06 436.18 91.72 436.18 87.18V83.06H433.64ZM455.72 83.96L453.08 83.74C453.02 84.76 452.76 85.98 452.36 87.06C451.52 89.26 449.98 91.42 447.42 93.78L449.56 95.38C450.24 94.5 450.8 93.78 451.4 93.18C452.16 92.46 453.42 91.8 454.52 91.8C455.36 91.8 456.16 92.22 456.16 93.5C456.18 94.58 456.14 96.28 456.06 97.22H458.46C458.44 95.96 458.38 93.78 458.38 92.7C458.38 90.84 457.12 89.86 455.46 89.86C454.78 89.86 453.72 90 453.18 90.24C453.74 89.44 454.32 88.3 454.74 87.32C455.3 85.88 455.56 84.7 455.72 83.96ZM448.18 85.82V88.14C449.28 88.24 450.74 88.28 451.56 88.28C454 88.28 458.02 88.1 460.84 87.7L460.86 85.38C457.96 85.9 454.34 86.04 451.7 86.04C450.68 86.04 449.2 85.96 448.18 85.82ZM464.02 91.5L463.04 89.16C462.28 89.54 461.58 89.86 460.8 90.2C459.6 90.76 458.34 91.24 456.5 92.2C454.1 93.4 451.24 95.04 451.24 97.82C451.24 100.4 453.58 101.18 456.7 101.18C458.6 101.18 461.04 101 462.38 100.82L462.46 98.24C460.7 98.6 458.46 98.82 456.76 98.82C454.82 98.82 453.86 98.52 453.86 97.42C453.86 96.32 454.84 95.46 456.66 94.52C458.54 93.56 460.34 92.84 461.64 92.34C462.32 92.08 463.4 91.68 464.02 91.5ZM471.5 88.14V89.88H480.4V88.14H471.5ZM471.5 91.08V92.8H480.4V91.08H471.5ZM479.32 84.92V98.84C479.32 99.22 479.18 99.34 478.78 99.34C478.36 99.34 476.94 99.36 475.7 99.28C476.06 99.96 476.44 101.1 476.54 101.82C478.48 101.82 479.78 101.78 480.66 101.38C481.54 100.96 481.8 100.26 481.8 98.88V84.92H479.32ZM466.98 94.38L467.32 96.76C470.8 96.52 475.78 96.12 480.44 95.72L480.48 93.7C475.58 93.98 470.26 94.26 466.98 94.38ZM482.82 89.04C479.56 94.28 473.68 97.7 466.7 99.46C467.18 99.98 467.98 101.08 468.32 101.66C475.26 99.6 481.42 95.92 485.16 90.16L482.82 89.04ZM474.74 82.96C474.52 83.9 474.06 85.18 473.62 86.12L475.76 86.54C476.32 85.74 477.1 84.5 477.7 83.28L474.74 82.96ZM469.96 84.92V95.48H472.36V86.98H480.12V84.92H469.96ZM494.94 86.02L494.96 88.58C497.46 88.82 501.1 88.82 503.54 88.58V86C501.4 86.26 497.4 86.36 494.94 86.02ZM496.54 94.56L494.26 94.36C494.02 95.38 493.9 96.16 493.9 96.96C493.9 99 495.56 100.24 499 100.24C501.26 100.24 502.88 100.1 504.18 99.84L504.12 97.14C502.38 97.52 500.9 97.68 499.12 97.68C497.08 97.68 496.3 97.14 496.3 96.24C496.3 95.72 496.38 95.24 496.54 94.56ZM491.86 84.68L489.06 84.46C489.04 85.1 488.94 85.86 488.86 86.4C488.64 87.96 488.04 91.32 488.04 94.34C488.04 97.06 488.42 99.5 488.82 100.86L491.12 100.72C491.1 100.44 491.1 100.1 491.08 99.88C491.08 99.68 491.14 99.24 491.2 98.94C491.4 97.88 492.06 95.72 492.64 94.04L491.4 93.06C491.1 93.74 490.78 94.42 490.48 95.1C490.42 94.7 490.4 94.2 490.4 93.8C490.4 91.8 491.1 87.8 491.38 86.48C491.46 86.12 491.72 85.1 491.86 84.68ZM507.06 89.04L508.2 91.86C510.3 90.94 515.02 88.96 517.98 88.96C520.38 88.96 521.68 90.38 521.68 92.26C521.68 95.76 517.42 97.32 512 97.44L513.18 100.1C520.22 99.74 524.54 96.84 524.54 92.32C524.54 88.62 521.68 86.54 518.08 86.54C515.14 86.54 511.06 87.96 509.54 88.44C508.8 88.66 507.8 88.92 507.06 89.04ZM541.56 84.1H538.64C538.72 84.42 538.82 85 538.86 85.48C538.96 86.6 539 89.84 539 91.34C539 94.7 538.66 96.5 537.14 98.1C536.58 98.72 535.58 99.36 534.8 99.7L537.12 101.5C541.1 98.98 541.46 96.06 541.46 91.36C541.46 90.18 541.42 86.4 541.46 85.48C541.46 85.02 541.48 84.54 541.56 84.1ZM533.66 88.02V90.54C534.66 90.6 535.88 90.66 536.76 90.66C539.46 90.66 542.54 90.5 544.44 90.28V87.68C542.48 88.04 539.28 88.22 536.7 88.22C535.62 88.22 534.64 88.16 533.66 88.02ZM531.6 84.44L528.64 84.16C528.62 84.66 528.6 85.34 528.52 85.88C528.26 87.52 527.86 90.6 527.86 93.88C527.86 96.36 528.56 99.14 529 100.36L531.24 100.14C531.22 99.86 531.2 99.52 531.2 99.3C531.18 99.08 531.24 98.64 531.32 98.32C531.56 97.18 532.08 95.18 532.68 93.46L531.42 92.66C531.1 93.38 530.72 94.36 530.46 94.98C529.92 92.5 530.64 88.3 531.14 86.08C531.24 85.66 531.44 84.94 531.6 84.44ZM557.38 83.98H554.38C554.5 84.46 554.56 85.32 554.58 86.32C554.6 87.18 554.62 88.36 554.62 89.56C554.62 91.46 554.86 95.5 554.86 96.9C554.86 98.22 554.38 98.8 553.1 98.8C551.7 98.8 550.7 98.42 550.7 97.46C550.7 96.58 551.64 96.06 553.2 96.06C556.82 96.06 560 98.22 561.98 100.22L563.52 97.82C561.48 95.94 557.74 93.84 553.56 93.84C549.9 93.84 548.1 95.48 548.1 97.58C548.1 100.28 550.44 101.22 553.32 101.22C556.66 101.22 557.58 99.54 557.58 97.76C557.58 96.08 557.2 91.78 557.2 89.56C557.2 88.42 557.18 87.28 557.2 86.32C557.24 85.54 557.3 84.56 557.38 83.98ZM555.86 87.8V90.16C557.1 90.16 560.62 90.06 562.88 89.86L562.78 87.48C560.54 87.72 557.04 87.8 555.86 87.8ZM579.68 93.46C579.68 96.6 576.5 98.22 571.54 98.78L572.96 101.28C578.52 100.5 582.5 97.86 582.5 93.56C582.5 90.44 580.28 88.64 577.12 88.64C574.76 88.64 572.52 89.22 571.06 89.54C570.4 89.68 569.56 89.84 568.88 89.88L569.64 92.76C570.2 92.52 571 92.22 571.58 92.04C572.58 91.74 574.58 91.08 576.78 91.08C578.66 91.08 579.68 92.14 579.68 93.46ZM571.82 83.86L571.44 86.26C573.74 86.66 578.08 87.06 580.42 87.22L580.8 84.76C578.7 84.76 574.16 84.36 571.82 83.86ZM588.669 95.06C586.889 95.06 585.429 96.5 585.429 98.28C585.429 100.08 586.889 101.52 588.669 101.52C590.469 101.52 591.909 100.08 591.909 98.28C591.909 96.5 590.469 95.06 588.669 95.06ZM588.669 100.08C587.689 100.08 586.869 99.28 586.869 98.28C586.869 97.3 587.689 96.5 588.669 96.5C589.669 96.5 590.469 97.3 590.469 98.28C590.469 99.28 589.669 100.08 588.669 100.08Z" fill="black"/>
</g>
<defs>
<filter id="filter0_d_578_2393" x="174.8" y="82.96" width="421.109" height="26.9805" filterUnits="userSpaceOnUse" color-interpolation-filters="sRGB">
<feFlood flood-opacity="0" result="BackgroundImageFix"/>
<feColorMatrix in="SourceAlpha" type="matrix" values="0 0 0 0 0 0 0 0 0 0 0 0 0 0 0 0 0 0 127 0" result="hardAlpha"/>
<feOffset dy="4"/>
<feGaussianBlur stdDeviation="2"/>
<feComposite in2="hardAlpha" operator="out"/>
<feColorMatrix type="matrix" values="0 0 0 0 0 0 0 0 0 0 0 0 0 0 0 0 0 0 0.25 0"/>
<feBlend mode="normal" in2="BackgroundImageFix" result="effect1_dropShadow_578_2393"/>
<feBlend mode="normal" in="SourceGraphic" in2="effect1_dropShadow_578_2393" result="shape"/>
</filter>
<linearGradient id="paint0_linear_578_2393" x1="887.118" y1="114" x2="887.118" y2="489.294" gradientUnits="userSpaceOnUse">
<stop stop-color="#BADEF5" stop-opacity="0"/>
<stop offset="0.661458" stop-color="#A2D3F2" stop-opacity="0.848958"/>
<stop offset="0.833333" stop-color="#A1D3F2" stop-opacity="0.885145"/>
<stop offset="1" stop-color="#6DBAEC"/>
</linearGradient>
<linearGradient id="paint1_linear_578_2393" x1="432.235" y1="129.529" x2="432.235" y2="488" gradientUnits="userSpaceOnUse">
<stop stop-color="#F187B6"/>
<stop offset="1" stop-color="#FCCDE2" stop-opacity="0"/>
</linearGradient>
</defs>
</svg>
